<svg version="1.1" xmlns="http://www.w3.org/2000/svg" xmlns:xlink="http://www.w3.org/1999/xlink" width="20" height="16" viewBox="0,0,256,204.79688"><g fill="#ffffff" fill-rule="nonzero" stroke="none" stroke-width="1" stroke-linecap="butt" stroke-linejoin="miter" stroke-miterlimit="10" stroke-dasharray="" stroke-dashoffset="0" font-family="none" font-weight="none" font-size="none" text-anchor="none" style="mix-blend-mode: normal"><g transform="translate(0,1.17412) scale(12.8,12.8)"><path d="M10,0c-5.51397,0 -10,3.54752 -10,7.9081c0,4.3606 4.48603,7.9082 10,7.9082c5.514,0 10,-3.5476 10,-7.9082c0,-4.36058 -4.4859,-7.9081 -10,-7.9081zM15.7422,6.57236l-6.28251,4.96824c-0.26714,0.2113 -0.62223,0.3275 -0.99997,0.3275c-0.37774,0 -0.73284,-0.1162 -0.99997,-0.3275l-3.20193,-2.5321c-0.26713,-0.21125 -0.41426,-0.49206 -0.41426,-0.79079c0,-0.2988 0.14713,-0.57961 0.41426,-0.79086c0.26703,-0.21125 0.62213,-0.32761 0.99997,-0.32761c0.37774,0 0.73294,0.11636 0.99997,0.32769l2.20185,1.74116l5.28239,-4.17739c0.2672,-0.21125 0.6223,-0.32752 1,-0.32752c0.3777,0 0.7328,0.11627 1,0.32752c0.5516,0.4362 0.5516,1.14562 0.0002,1.58166z"></path></g></g></svg>